<?xml version="1.0" encoding="UTF-8" standalone="no"?>
<!DOCTYPE svg PUBLIC "-//W3C//DTD SVG 1.1//EN" "http://www.w3.org/Graphics/SVG/1.1/DTD/svg11.dtd">
<svg width="100%" height="100%" viewBox="0 0 1639 492" version="1.1" xmlns="http://www.w3.org/2000/svg" xmlns:xlink="http://www.w3.org/1999/xlink" xml:space="preserve" xmlns:serif="http://www.serif.com/" style="fill-rule:evenodd;clip-rule:evenodd;stroke-linejoin:round;stroke-miterlimit:2;">
    <g transform="matrix(1,0,0,1,0,-394.493)">
        <g id="Logo" transform="matrix(1.01612,0,0,0.956255,-648.297,-533.01)">
            <rect x="638.01" y="969.933" width="1612.57" height="514.397" style="fill:none;"/>
            <g transform="matrix(0.984133,0,0,1.04575,139.803,182.598)">
                <path d="M1062.39,903.834L1151.45,903.834L1151.45,1144.03L1212.25,1144.03L1212.25,903.834L1301.31,903.834L1301.31,853.124L1062.39,853.124L1062.39,903.834Z" style="fill:rgb(33,37,41);fill-rule:nonzero;"/>
                <path d="M1407.27,1148.29C1461.25,1148.29 1497.61,1122.01 1506.14,1081.53L1450.17,1077.84C1444.06,1094.46 1428.44,1103.12 1408.27,1103.12C1378.01,1103.12 1358.84,1083.09 1358.84,1050.57L1358.84,1050.42L1507.41,1050.42L1507.41,1033.8C1507.41,959.657 1462.53,923.009 1404.86,923.009C1340.65,923.009 1299.04,968.606 1299.04,1035.93C1299.04,1105.11 1340.09,1148.29 1407.27,1148.29ZM1358.84,1012.92C1360.12,988.066 1379.01,968.179 1405.85,968.179C1432.13,968.179 1450.31,986.929 1450.45,1012.92L1358.84,1012.92Z" style="fill:rgb(33,37,41);fill-rule:nonzero;"/>
                <path d="M1662.95,925.85L1621.9,925.85L1621.9,873.578L1561.39,873.578L1561.39,925.85L1531.57,925.85L1531.57,971.304L1561.39,971.304L1561.39,1084.94C1561.11,1127.69 1590.23,1148.86 1634.12,1147.01C1649.75,1146.44 1660.83,1143.32 1666.93,1141.33L1657.41,1096.3C1654.43,1096.87 1648.04,1098.29 1642.36,1098.29C1630.29,1098.29 1621.9,1093.75 1621.9,1076.99L1621.9,971.304L1662.95,971.304L1662.95,925.85Z" style="fill:rgb(33,37,41);fill-rule:nonzero;"/>
                <path d="M1702.3,1144.03L1762.81,1144.03L1762.81,1020.59C1762.81,993.747 1782.42,975.282 1809.12,975.282C1817.5,975.282 1829.01,976.702 1834.69,978.549L1834.69,924.856C1829.29,923.578 1821.76,922.725 1815.65,922.725C1791.22,922.725 1771.19,936.93 1763.24,963.918L1760.97,963.918L1760.97,925.85L1702.3,925.85L1702.3,1144.03Z" style="fill:rgb(33,37,41);fill-rule:nonzero;"/>
                <path d="M1921.9,1148.15C1954.15,1148.15 1975.03,1134.09 1985.68,1113.77L1987.39,1113.77L1987.39,1144.03L2044.77,1144.03L2044.77,996.872C2044.77,944.884 2000.74,923.009 1952.16,923.009C1899.89,923.009 1865.51,948.009 1857.13,987.781L1913.1,992.327C1917.22,977.838 1930.14,967.185 1951.88,967.185C1972.47,967.185 1984.26,977.554 1984.26,995.452L1984.26,996.304C1984.26,1010.37 1969.35,1012.21 1931.42,1015.91C1888.24,1019.88 1849.46,1034.37 1849.46,1083.09C1849.46,1126.27 1880.29,1148.15 1921.9,1148.15ZM1939.23,1106.39C1920.63,1106.39 1907.27,1097.72 1907.27,1081.1C1907.27,1064.06 1921.34,1055.68 1942.64,1052.69C1955.85,1050.85 1977.44,1047.72 1984.69,1042.89L1984.69,1066.05C1984.69,1088.92 1965.8,1106.39 1939.23,1106.39Z" style="fill:rgb(33,37,41);fill-rule:nonzero;"/>
            </g>
            <g transform="matrix(0.984133,0,0,1.04575,638.01,410.459)">
                <path d="M321.492,571.91L305.254,567.559L90.203,940.038L102.09,951.925L106.441,968.163L536.543,968.163L540.894,951.925L552.781,940.038L337.73,567.559L321.492,571.91ZM321.492,846.904L466.567,930.663L176.417,930.663L321.492,846.904ZM157.667,898.187L302.742,646.91C302.742,646.91 302.742,814.428 302.742,814.428L196.212,875.933L157.667,898.187ZM340.242,646.91L340.242,691.404L340.242,814.428L485.317,898.187L340.242,646.91Z" style="fill:rgb(33,37,41);"/>
            </g>
        </g>
    </g>
</svg>
